<svg width="39" height="39" viewBox="0 0 39 39" fill="none" xmlns="http://www.w3.org/2000/svg">
<path d="M38.9868 6.21058C38.9823 5.96395 38.9784 5.75102 38.9784 5.57143H31.9417C32.0775 2.5579 31.9862 0 31.9862 0H19.5756C19.5465 0.000134048 19.5175 0.00176117 19.4885 0.00487498C19.4596 0.00175627 19.4306 0.000129134 19.4015 0H6.95926C6.95926 0 6.86803 2.5579 7.00383 5.57143H0V8.35714H0.0140151C0.0846131 10.6289 0.447527 13.6673 1.95812 16.7777C3.23933 19.4161 5.08428 21.6235 7.44196 23.3387C9.39381 24.7587 11.624 25.7818 14.0757 26.3929C15.4915 27.9041 16.8878 28.7372 18.1065 29.0722V32.1734C17.9324 33.0947 16.8756 36.2143 9.50889 36.2143H8.35686V39H30.6418V36.2143H29.4947C20.8519 36.2143 20.8921 31.9196 20.8921 31.9196V29.0717C22.1109 28.7372 23.4802 27.9075 24.8886 26.404C27.3582 25.7943 29.5956 24.7674 31.5596 23.3386C33.9171 21.6234 35.7608 19.416 37.042 16.7777C39.1034 12.5328 39.0271 8.42008 38.9868 6.21058ZM4.46239 15.5604C3.20364 12.968 2.87424 10.359 2.8019 8.35714H7.19682C7.27238 9.13314 7.36796 9.89808 7.48897 10.6188C8.23003 15.0332 9.24852 18.9318 11.1759 22.3718C8.23029 20.8796 5.91683 18.5554 4.46239 15.5604ZM34.5362 15.5604C33.0731 18.5733 30.7405 20.9073 27.7698 22.3985C29.7037 18.9519 30.7135 15.0446 31.4566 10.6189C31.5776 9.89808 31.6732 9.13314 31.7488 8.35723H36.1967C36.1244 10.359 35.795 12.968 34.5362 15.5604Z" fill="white"/>
</svg>
