<svg width="604" height="604" viewBox="0 0 604 604" fill="none" xmlns="http://www.w3.org/2000/svg">
<path d="M316.831 595.909L315.752 595.734C315.903 595.85 316.081 595.927 316.269 595.958C316.457 595.989 316.65 595.972 316.831 595.909ZM562.071 210.023C561.763 208.396 560.921 206.919 559.678 205.825C558.435 204.732 556.862 204.085 555.209 203.988C553.557 203.89 551.919 204.347 550.555 205.287C549.192 206.226 548.182 207.594 547.685 209.174C547.209 210.673 546.271 211.983 545.004 212.916C543.737 213.848 542.207 214.355 540.634 214.364H519.777C518.428 214.366 517.103 213.997 515.948 213.299L485.775 195.206C484.62 194.508 483.296 194.14 481.946 194.141H433.68C432.211 194.139 430.775 194.576 429.555 195.395L370.031 235.073C369.002 235.758 368.16 236.689 367.581 237.781C367.002 238.873 366.704 240.092 366.714 241.329V297.603C366.713 298.952 367.078 300.275 367.772 301.432C368.465 302.589 369.461 303.535 370.651 304.169L448.699 345.829C449.872 346.459 450.855 347.392 451.547 348.529C452.239 349.667 452.615 350.969 452.636 352.3L453 383.97C453.021 385.281 453.387 386.563 454.062 387.687C454.736 388.812 455.696 389.738 456.843 390.374L488.202 407.725C489.364 408.371 490.333 409.314 491.008 410.459C491.684 411.604 492.041 412.908 492.044 414.237V479.76C492.045 481.192 492.458 482.594 493.235 483.797C494.012 484.999 495.119 485.953 496.424 486.542C497.729 487.131 499.177 487.331 500.593 487.118C502.009 486.906 503.333 486.289 504.408 485.342C517.054 474.206 535.187 457.946 537.601 454.225C541.591 448.05 545.335 441.727 548.831 435.256C556.072 421.847 562.204 407.869 567.167 393.461C584.262 343.968 570.753 254.999 562.071 210.023ZM342.986 365.095L260.3 303.077C259.366 302.377 258.231 301.998 257.064 301.998H217.831C217.16 301.999 216.495 301.867 215.875 301.61C215.255 301.354 214.692 300.977 214.218 300.502L195.72 282.004C195.219 281.504 194.624 281.107 193.97 280.836C193.315 280.565 192.613 280.426 191.905 280.427H120.193C119.183 280.427 118.195 280.127 117.355 279.566C116.514 279.004 115.859 278.206 115.473 277.272C115.086 276.339 114.985 275.311 115.182 274.32C115.379 273.329 115.866 272.418 116.58 271.704L127.932 260.352C128.406 259.877 128.97 259.5 129.59 259.243C130.21 258.986 130.874 258.855 131.545 258.855H175.187C177.538 258.855 179.824 258.087 181.698 256.669C183.572 255.25 184.931 253.258 185.568 250.995L194.858 217.964C195.056 217.254 195.397 216.592 195.861 216.02C196.325 215.447 196.901 214.975 197.554 214.634L234.589 195.57C235.423 195.139 236.122 194.488 236.609 193.686C237.097 192.885 237.354 191.965 237.353 191.027V174.174C237.355 173.128 237.675 172.108 238.27 171.248L257.954 142.909C258.544 142.057 259.382 141.408 260.354 141.048L287.898 130.708C288.872 130.342 289.712 129.688 290.305 128.833C290.897 127.978 291.215 126.962 291.214 125.921V110.552C291.214 109.709 291.006 108.879 290.609 108.136C290.211 107.393 289.637 106.759 288.936 106.291L261.325 87.9287C260.566 87.4296 259.689 87.1394 258.783 87.0873C257.876 87.0353 256.972 87.2232 256.161 87.6321L218.573 106.426C217.713 106.851 216.751 107.024 215.797 106.926C214.843 106.829 213.936 106.464 213.18 105.873L195.356 91.7846C194.748 91.2955 194.26 90.6738 193.928 89.9671C193.597 89.2605 193.432 88.4874 193.445 87.707C193.458 86.9266 193.649 86.1595 194.004 85.4643C194.358 84.769 194.867 84.164 195.491 83.6954L209.971 73.031C210.627 72.5502 211.158 71.9195 211.52 71.1917C211.882 70.4639 212.064 69.66 212.053 68.8472C212.041 68.0343 211.835 67.2361 211.451 66.5192C211.068 65.8023 210.519 65.1874 209.85 64.726L187.294 48.9923C186.513 48.4426 185.594 48.1233 184.64 48.0709C183.687 48.0184 182.738 48.2349 181.901 48.6957C173.745 53.1583 149.814 66.3708 141.32 72.3164C102.021 99.8757 70.394 136.996 49.4257 180.174C46.9719 185.243 43.9385 190.407 43.6419 195.975C43.3452 201.543 38.977 213.973 37.1569 219.002C36.9114 219.682 36.8133 220.406 36.8691 221.127C36.9249 221.847 37.1333 222.548 37.4805 223.182L85.5983 311.597C86.0313 312.401 86.6743 313.072 87.4588 313.539L138.084 343.928C138.741 344.319 139.301 344.853 139.724 345.49C140.146 346.127 140.42 346.851 140.525 347.608L150.663 421.14C150.762 421.845 151.006 422.521 151.38 423.127C151.753 423.732 152.248 424.254 152.834 424.659L192.336 451.812C193.481 452.598 194.278 453.796 194.561 455.155L215.512 554.654C215.63 555.238 215.854 555.795 216.173 556.298C218.141 559.48 225.988 571.129 235.452 572.854C234.576 573.097 233.794 573.65 232.918 573.906C235.191 574.306 237.441 574.828 239.659 575.47C242.355 576.198 245.052 576.818 247.748 577.398C251.968 578.234 252.386 578.881 254.408 575.133C257.105 570.118 260.192 568.392 262.497 567.772C263.449 567.552 264.319 567.069 265.008 566.378C265.698 565.686 266.178 564.814 266.394 563.862L279.97 500.927C280.256 499.608 281.025 498.444 282.127 497.665L342.797 454.656C343.502 454.158 344.077 453.497 344.474 452.73C344.87 451.963 345.077 451.111 345.076 450.248V369.409C345.084 368.577 344.899 367.755 344.536 367.007C344.174 366.258 343.643 365.604 342.986 365.095Z" fill="url(#paint0_linear_21_9)"/>
<path d="M310.09 21.5714C310.09 21.5714 305.169 21.8546 304.171 21.8815C296.864 22.0972 289.574 22.6006 282.303 23.3915C255.796 26.2671 229.836 32.9182 205.212 43.1429C208.488 45.4079 202.853 47.4841 202.853 47.4841L211.67 64.7143H258.858L291.215 80.8929L319.527 64.7143L310.09 21.5714ZM434.436 118.724L456.155 99.8488C456.835 99.2587 457.356 98.5078 457.672 97.6646C457.987 96.8213 458.086 95.9126 457.96 95.0213C457.834 94.1299 457.487 93.2843 456.95 92.5615C456.414 91.8386 455.705 91.2617 454.888 90.8831L429.528 79.1132C428.24 78.5123 426.766 78.4442 425.428 78.9239C424.09 79.4036 422.996 80.3923 422.383 81.6748L411.934 103.529C411.365 104.724 411.256 106.086 411.626 107.357C411.996 108.627 412.821 109.717 413.943 110.419L428.045 119.236C429.025 119.846 430.174 120.125 431.325 120.033C432.475 119.94 433.565 119.482 434.436 118.724ZM536.104 146.51L528.244 134.377C528.123 134.188 528.015 133.999 527.907 133.797C526.492 130.898 514.776 107.237 504.988 98.0556C497.64 91.1123 495.55 93.1077 494.97 94.6447C494.639 95.4947 494.085 96.2398 493.366 96.8018L454.484 128.229C453.526 129.003 452.331 129.427 451.1 129.429H430.971C430.262 129.428 429.561 129.567 428.906 129.838C428.251 130.108 427.656 130.505 427.155 131.006L410.977 147.185C410.475 147.685 410.077 148.28 409.806 148.935C409.535 149.59 409.395 150.291 409.395 151C409.395 151.709 409.535 152.41 409.806 153.065C410.077 153.72 410.475 154.315 410.977 154.815L427.155 170.994C427.656 171.495 428.251 171.892 428.906 172.162C429.561 172.433 430.262 172.572 430.971 172.571L532.316 172.571C533.044 172.572 533.764 172.425 534.434 172.14C535.104 171.855 535.709 171.437 536.213 170.912C536.717 170.386 537.109 169.765 537.366 169.084C537.623 168.403 537.74 167.677 537.709 166.949L536.967 149.22C536.927 148.256 536.629 147.32 536.104 146.51Z" fill="url(#paint1_linear_21_9)"/>
<path d="M302 53.9286C359.393 53.9238 415.012 73.8195 459.38 110.226C503.748 146.632 534.121 197.296 545.322 253.585C556.523 309.874 547.86 368.306 520.809 418.924C493.758 469.542 449.992 509.214 396.97 531.181C343.947 553.148 284.948 556.051 230.025 539.394C175.103 522.738 127.655 487.553 95.7657 439.834C63.8768 392.116 49.5203 334.817 55.1422 277.7C60.7642 220.583 86.0168 167.183 126.597 126.597C149.576 103.487 176.911 85.1651 207.019 72.6914C237.127 60.2177 269.41 53.8404 302 53.9286ZM302 0C135.226 0 0 135.226 0 302C0 468.774 135.226 604 302 604C468.774 604 604 468.774 604 302C604 135.226 468.774 0 302 0Z" fill="url(#paint2_linear_21_9)"/>
<defs>
<linearGradient id="paint0_linear_21_9" x1="577.618" y1="323.832" x2="44.4318" y2="320.327" gradientUnits="userSpaceOnUse">
<stop stop-color="#F05F07"/>
<stop offset="1" stop-color="#FCB711" stop-opacity="0"/>
</linearGradient>
<linearGradient id="paint1_linear_21_9" x1="539.1" y1="97.5715" x2="207.623" y2="92.6544" gradientUnits="userSpaceOnUse">
<stop stop-color="#F05F07"/>
<stop offset="1" stop-color="#FCB711" stop-opacity="0"/>
</linearGradient>
<linearGradient id="paint2_linear_21_9" x1="606.5" y1="304" x2="8.5" y2="300" gradientUnits="userSpaceOnUse">
<stop stop-color="#F05F07"/>
<stop offset="1" stop-color="#FCB711" stop-opacity="0"/>
</linearGradient>
</defs>
</svg>
