<svg width="44" height="45" viewBox="0 0 44 45" fill="none" xmlns="http://www.w3.org/2000/svg">
<circle cx="22" cy="22.019" r="22" fill="#FF398C"/>
<path d="M29.476 12.863C29.1437 12.863 28.8189 12.9616 28.5426 13.1462C28.2664 13.3308 28.051 13.5932 27.9239 13.9001C27.7967 14.2071 27.7635 14.5449 27.8283 14.8708C27.8931 15.1967 28.0531 15.496 28.2881 15.731C28.523 15.9659 28.8224 16.1259 29.1482 16.1908C29.4741 16.2556 29.8119 16.2223 30.1189 16.0952C30.4259 15.968 30.6883 15.7527 30.8729 15.4764C31.0575 15.2001 31.156 14.8753 31.156 14.543C31.156 14.0975 30.979 13.6702 30.6639 13.3551C30.3489 13.04 29.9216 12.863 29.476 12.863ZM35.916 16.251C35.8888 15.0895 35.6712 13.9402 35.272 12.849C34.916 11.9154 34.362 11.07 33.648 10.371C32.9548 9.65344 32.1074 9.10289 31.17 8.76104C30.0817 8.34967 28.9312 8.12714 27.768 8.10304C26.284 8.01904 25.808 8.01904 22 8.01904C18.192 8.01904 17.716 8.01904 16.232 8.10304C15.0688 8.12714 13.9183 8.34967 12.83 8.76104C11.8943 9.10635 11.0477 9.65643 10.352 10.371C9.6344 11.0643 9.08385 11.9117 8.742 12.849C8.33063 13.9373 8.10809 15.0879 8.084 16.251C8 17.735 8 18.211 8 22.019C8 25.827 8 26.303 8.084 27.787C8.10809 28.9502 8.33063 30.1008 8.742 31.189C9.08385 32.1264 9.6344 32.9738 10.352 33.667C11.0477 34.3817 11.8943 34.9317 12.83 35.277C13.9183 35.6884 15.0688 35.9109 16.232 35.935C17.716 36.019 18.192 36.019 22 36.019C25.808 36.019 26.284 36.019 27.768 35.935C28.9312 35.9109 30.0817 35.6884 31.17 35.277C32.1074 34.9352 32.9548 34.3846 33.648 33.667C34.3651 32.9707 34.9197 32.1245 35.272 31.189C35.6712 30.0979 35.8888 28.9486 35.916 27.787C35.916 26.303 36 25.827 36 22.019C36 18.211 36 17.735 35.916 16.251ZM33.396 27.619C33.3858 28.5077 33.2249 29.3882 32.92 30.223C32.6965 30.8323 32.3374 31.3828 31.87 31.833C31.4159 32.2958 30.8665 32.654 30.26 32.883C29.4252 33.1879 28.5447 33.3489 27.656 33.359C26.256 33.429 25.738 33.443 22.056 33.443C18.374 33.443 17.856 33.443 16.456 33.359C15.5332 33.3763 14.6144 33.2342 13.74 32.939C13.1601 32.6984 12.6359 32.3409 12.2 31.889C11.7353 31.4393 11.3808 30.8883 11.164 30.279C10.8222 29.4323 10.6326 28.5318 10.604 27.619C10.604 26.219 10.52 25.701 10.52 22.019C10.52 18.337 10.52 17.819 10.604 16.419C10.6103 15.5105 10.7761 14.6102 11.094 13.759C11.3405 13.1681 11.7188 12.6414 12.2 12.219C12.6253 11.7377 13.151 11.3554 13.74 11.099C14.5934 10.7911 15.4928 10.6302 16.4 10.623C17.8 10.623 18.318 10.539 22 10.539C25.682 10.539 26.2 10.539 27.6 10.623C28.4887 10.6332 29.3692 10.7942 30.204 11.099C30.8402 11.3352 31.4112 11.719 31.87 12.219C32.3288 12.6491 32.6873 13.1749 32.92 13.759C33.2312 14.6115 33.3922 15.5115 33.396 16.419C33.466 17.819 33.48 18.337 33.48 22.019C33.48 25.701 33.466 26.219 33.396 27.619ZM22 14.837C20.5801 14.8398 19.1929 15.2634 18.0137 16.0542C16.8345 16.8451 15.9161 17.9677 15.3747 19.2803C14.8332 20.5929 14.693 22.0365 14.9717 23.4287C15.2504 24.821 15.9355 26.0994 16.9405 27.1024C17.9455 28.1054 19.2252 28.7881 20.618 29.0641C22.0108 29.34 23.4541 29.197 24.7657 28.653C26.0772 28.109 27.198 27.1885 27.9866 26.0077C28.7751 24.8269 29.196 23.4389 29.196 22.019C29.1979 21.0742 29.0129 20.1383 28.6517 19.2652C28.2906 18.3921 27.7604 17.599 27.0916 16.9315C26.4229 16.2641 25.6287 15.7354 24.7549 15.3759C23.8811 15.0165 22.9448 14.8334 22 14.837ZM22 26.681C21.0779 26.681 20.1766 26.4076 19.4099 25.8954C18.6433 25.3831 18.0457 24.655 17.6929 23.8031C17.34 22.9512 17.2477 22.0139 17.4276 21.1095C17.6075 20.2052 18.0515 19.3745 18.7035 18.7225C19.3555 18.0705 20.1861 17.6265 21.0905 17.4466C21.9948 17.2667 22.9322 17.3591 23.7841 17.7119C24.6359 18.0648 25.364 18.6623 25.8763 19.429C26.3886 20.1956 26.662 21.097 26.662 22.019C26.662 22.6313 26.5414 23.2375 26.3071 23.8031C26.0728 24.3687 25.7294 24.8827 25.2965 25.3156C24.8636 25.7485 24.3497 26.0919 23.7841 26.3262C23.2184 26.5605 22.6122 26.681 22 26.681Z" fill="white"/>
</svg>
