<svg width="28" height="28" viewBox="0 0 28 28" fill="none" xmlns="http://www.w3.org/2000/svg">
<path d="M27.6068 25.6395L22.4159 20.4866C24.4309 17.9724 25.4067 14.7811 25.1426 11.569C24.8786 8.35686 23.3949 5.36804 20.9965 3.21709C18.5981 1.06615 15.4674 -0.083439 12.2481 0.00472013C9.02875 0.0928793 5.96552 1.41208 3.68827 3.69107C1.41101 5.97006 0.0928087 9.03561 0.00471654 12.2574C-0.0833757 15.4791 1.06534 18.6122 3.21465 21.0125C5.36397 23.4127 8.35052 24.8975 11.5602 25.1617C14.7699 25.426 17.9588 24.4494 20.4711 22.433L25.62 27.5858C25.7501 27.7171 25.9048 27.8212 26.0753 27.8923C26.2459 27.9634 26.4287 28 26.6134 28C26.7981 28 26.981 27.9634 27.1515 27.8923C27.322 27.8212 27.4768 27.7171 27.6068 27.5858C27.859 27.3247 28 26.9758 28 26.6127C28 26.2495 27.859 25.9006 27.6068 25.6395ZM12.6218 22.433C10.6847 22.433 8.79105 21.8581 7.1804 20.7811C5.56976 19.7041 4.31441 18.1733 3.57312 16.3823C2.83182 14.5913 2.63786 12.6205 3.01577 10.7191C3.39368 8.81782 4.32649 7.07134 5.69623 5.70056C7.06597 4.32977 8.81112 3.39626 10.711 3.01806C12.6109 2.63987 14.5802 2.83397 16.3698 3.57583C18.1595 4.31769 19.6891 5.57399 20.7653 7.18586C21.8415 8.79773 22.4159 10.6928 22.4159 12.6313C22.4159 15.2309 21.3841 17.724 19.5473 19.5621C17.7105 21.4003 15.2193 22.433 12.6218 22.433Z" fill="#999999"/>
</svg>
