<svg width="44" height="45" viewBox="0 0 44 45" fill="none" xmlns="http://www.w3.org/2000/svg">
<circle cx="22" cy="22.019" r="22" fill="#39B8FF"/>
<path d="M36 13.7746C34.9853 14.2353 33.9121 14.5398 32.814 14.6787C33.9725 13.9545 34.8407 12.8151 35.2575 11.4719C34.1688 12.1501 32.977 12.6279 31.734 12.8846C30.9031 11.9418 29.7967 11.3141 28.5882 11.1002C27.3798 10.8863 26.1376 11.0981 25.0566 11.7025C23.9756 12.3069 23.1169 13.2696 22.6151 14.4397C22.1133 15.6099 21.9968 16.9212 22.284 18.168C20.0827 18.0515 17.9295 17.4517 15.9642 16.4076C13.9989 15.3635 12.2654 13.8985 10.8765 12.1076C10.3893 12.9979 10.1334 14.006 10.134 15.0319C10.1323 15.9846 10.3557 16.9229 10.7844 17.7634C11.213 18.6038 11.8337 19.3203 12.591 19.8491C11.7108 19.824 10.8493 19.5769 10.08 19.1286V19.1993C10.0866 20.5341 10.5336 21.8255 11.3454 22.8552C12.1572 23.8849 13.2839 24.5895 14.535 24.8499C14.0534 25.0033 13.5534 25.0842 13.05 25.0901C12.7016 25.0858 12.354 25.0528 12.0105 24.9912C12.3668 26.1394 13.0562 27.1429 13.983 27.862C14.9097 28.581 16.0275 28.9799 17.181 29.0032C15.2332 30.6069 12.8284 31.4822 10.35 31.4895C9.89874 31.491 9.44784 31.4627 9 31.4047C11.5305 33.1144 14.4794 34.022 17.4915 34.0182C19.5701 34.0407 21.6321 33.6297 23.5572 32.809C25.4823 31.9884 27.2318 30.7745 28.7035 29.2384C30.1753 27.7023 31.3398 25.8747 32.129 23.8623C32.9182 21.85 33.3163 19.6933 33.3 17.5182C33.3 17.278 33.3 17.0237 33.3 16.7695C34.3593 15.9428 35.273 14.9293 36 13.7746Z" fill="white"/>
</svg>
