<svg width="44" height="44" viewBox="0 0 44 44" fill="none" xmlns="http://www.w3.org/2000/svg">
<circle cx="22" cy="22" r="22" fill="#FF3939"/>
<path d="M35.9934 19.0486C36.0578 17.198 35.6502 15.3612 34.8084 13.7088C34.2372 13.0308 33.4446 12.5733 32.5686 12.4159C28.9452 12.0895 25.3069 11.9557 21.6691 12.0151C18.0446 11.953 14.4193 12.0825 10.8087 12.403C10.0948 12.5319 9.43423 12.8644 8.90747 13.3597C7.73548 14.4329 7.60526 16.2688 7.47504 17.8203C7.2861 20.6099 7.2861 23.4089 7.47504 26.1985C7.51271 27.0718 7.64366 27.9386 7.8657 28.7844C8.02271 29.4374 8.34038 30.0415 8.79027 30.5427C9.32062 31.0644 9.99661 31.4157 10.7306 31.5512C13.538 31.8953 16.3668 32.0379 19.1949 31.9779C23.7526 32.0425 27.7504 31.9779 32.4774 31.6159C33.2294 31.4887 33.9244 31.1369 34.4698 30.6074C34.8344 30.2453 35.1067 29.802 35.2642 29.3145C35.7299 27.8956 35.9586 26.4107 35.9413 24.9185C35.9934 24.1945 35.9934 19.8244 35.9934 19.0486ZM18.7261 25.6943V17.6911L26.4352 21.7121C24.2735 22.9016 21.4217 24.2462 18.7261 25.6943Z" fill="white"/>
</svg>
